<svg width="54" height="49" viewBox="0 0 54 49" fill="none" xmlns="http://www.w3.org/2000/svg">
<path d="M14 23.0002C14 21.1146 14 20.1718 14.5858 19.586C15.1716 19.0002 16.1144 19.0002 18 19.0002H36C37.8856 19.0002 38.8284 19.0002 39.4142 19.586C40 20.1718 40 21.1146 40 23.0002V34.0002C40 36.8287 40 38.2429 39.1213 39.1216C38.2426 40.0002 36.8284 40.0002 34 40.0002H20C17.1716 40.0002 15.7574 40.0002 14.8787 39.1216C14 38.2429 14 36.8287 14 34.0002V23.0002Z" fill="black" stroke="black"/>
<path d="M37 19.0002V17.0002C37 12.2862 37 9.92918 35.5355 8.46471C34.0711 7.00024 31.714 7.00024 27 7.00024V7.00024C22.286 7.00024 19.9289 7.00024 18.4645 8.46471C17 9.92918 17 12.2862 17 17.0002V19.0002" stroke="black" stroke-linecap="round"/>
<line x1="52.5" y1="2.14051e-08" x2="52.5" y2="49" stroke="black"/>
</svg>
